<?xml version="1.0" encoding="utf-8"?>
<!-- Generator: Adobe Illustrator 16.0.4, SVG Export Plug-In . SVG Version: 6.00 Build 0)  -->
<!DOCTYPE svg PUBLIC "-//W3C//DTD SVG 1.1//EN" "http://www.w3.org/Graphics/SVG/1.1/DTD/svg11.dtd">
<svg version="1.1" id="Layer_1" xmlns="http://www.w3.org/2000/svg" xmlns:xlink="http://www.w3.org/1999/xlink" x="0px" y="0px"
	 width="642px" height="245px" viewBox="0 0 642 245" enable-background="new 0 0 642 245" xml:space="preserve">
<g>
	<path fill="#E8646D" d="M157.785,17.706l1.095,0.111v-0.111h68.982v0.087l2.6,0.262c7.834,1.611,13.726,8.571,13.726,16.914
		c0,8.341-5.892,15.302-13.725,16.913l-2.599,0.263v0.061h-0.601l-0.266,0.026l-0.265-0.026h-67.853v-0.111l-1.095,0.111
		c-9.485,0-17.174-7.723-17.174-17.249S148.3,17.706,157.785,17.706z"/>
	<ellipse fill="#E8646D" cx="208.549" cy="20.49" rx="16.706" ry="17.263"/>
	<circle fill="#E8646D" cx="179.034" cy="24.945" r="23.945"/>
</g>
<g>
	<path fill="#E8646D" d="M38.719,127.965l2.133,0.213v-0.213h134.256v0.169l5.06,0.509c15.244,3.115,26.71,16.588,26.71,32.733
		s-11.467,29.618-26.71,32.735l-5.06,0.509v0.114h-1.168l-0.515,0.054l-0.514-0.054H40.852v-0.213l-2.133,0.213
		c-18.46,0-33.426-14.947-33.426-33.385C5.293,142.911,20.259,127.965,38.719,127.965z"/>
	<ellipse fill="#E8646D" cx="138.94" cy="133.533" rx="32.298" ry="33.411"/>
	<ellipse fill="#E8646D" cx="79.913" cy="141.33" rx="46.775" ry="47.889"/>
</g>
<path fill="#E8646D" d="M343.563,126.852l3.746,0.375v-0.375h235.876v0.297l8.886,0.892c26.782,5.451,46.93,29.026,46.93,57.282
	s-20.146,51.828-46.929,57.283l-8.886,0.891v0.207h-2.055l-0.903,0.091l-0.905-0.091H347.311v-0.376l-3.746,0.376
	c-32.434,0-58.726-26.157-58.726-58.426C284.839,153.01,311.13,126.852,343.563,126.852z"/>
<ellipse fill="#E8646D" cx="527.628" cy="141.329" rx="56.801" ry="57.913"/>
<ellipse fill="#E8646D" cx="444.657" cy="105.133" rx="56.242" ry="58.47"/>
<ellipse fill="#E8646D" cx="395.096" cy="137.432" rx="56.801" ry="58.47"/>
<g>
	<path fill="#FC71BC" d="M174.733,92.326l2.709,0.271v-0.271h170.603v0.213l6.428,0.646c19.369,3.947,33.941,21.011,33.941,41.463
		c0,20.449-14.572,37.516-33.941,41.461l-6.428,0.646v0.149h-1.484l-0.656,0.064l-0.654-0.064H177.442v-0.271l-2.709,0.271
		c-23.458,0-42.475-18.934-42.475-42.287C132.259,111.259,151.275,92.326,174.733,92.326z"/>
	<ellipse fill="#FC71BC" cx="298.76" cy="120.169" rx="49.56" ry="51.232"/>
	<ellipse fill="#FC71BC" cx="236.948" cy="92.325" rx="62.368" ry="63.482"/>
</g>
<path fill="#F8B6B6" d="M416.917,97.337c0,14.704,12.169,26.624,27.183,26.624c15.012,0,27.181-11.92,27.181-26.624
	c0-14.705-12.169-26.625-27.181-26.625C429.086,70.712,416.917,82.632,416.917,97.337z M408.46,97.337
	c0-19.375,15.955-35.082,35.64-35.082c19.683,0,35.639,15.707,35.639,35.082s-15.956,35.082-35.639,35.082
	C424.415,132.419,408.46,116.713,408.46,97.337z"/>
<g>
	<path fill="#FFFFFF" d="M364.057,118.498c32.292,0,58.471,26.179,58.471,58.469c0,32.295-26.179,58.472-58.471,58.472
		s-58.47-26.177-58.47-58.472C305.587,144.677,331.764,118.498,364.057,118.498z"/>
	<path fill="#F9B5B6" d="M312.627,204.699c0.01,0.023,0.02,0.047,0.026,0.069c0.855,1.577,1.784,3.107,2.775,4.59
		c1.365,1.282,2.679,1.282,4.485,0.091c0.066-0.046,0.137-0.087,0.204-0.133c1.184-0.85,1.569-1.857,1.239-3.279
		c-0.316-1.361-0.949-2.582-1.768-3.698c-1.832-2.506-4.166-4.518-6.518-6.503c-0.895-0.754-1.819-1.471-2.835-2.288
		C310.805,197.418,311.396,201.126,312.627,204.699 M313.918,190.354c2.02,2.587,4.112,5.109,6.497,7.371
		c1.558,1.473,3.249,2.739,5.34,3.37c1.802,0.542,2.942,0.115,3.933-1.466c0.116-0.189,0.219-0.386,0.32-0.585
		c0.781-1.521,0.624-2.629-0.586-3.852c-1.082-1.097-2.385-1.869-3.812-2.423c-3.782-1.466-7.764-2.054-11.814-2.672
		C313.867,190.249,313.884,190.31,313.918,190.354 M327.231,181.678c-2.884,0.244-5.604,1.203-8.312,2.172
		c-1.265,0.45-2.514,0.949-3.896,1.476c0.221,0.115,0.298,0.168,0.385,0.199c2.748,0.953,5.477,1.973,8.256,2.835
		c2.113,0.655,4.293,0.976,6.533,0.655c2.111-0.303,3.135-1.164,3.365-2.958c0.301-2.342-0.547-3.787-2.654-4.184
		c-0.84-0.156-1.717-0.241-2.583-0.241C327.955,181.632,327.592,181.646,327.231,181.678 M411.907,181.021
		c-0.186,0.475-0.379,0.943-0.558,1.421c-0.83,2.225-1.649,4.453-1.919,6.834c-0.117,1.038-0.061,2.07,0.324,3.059
		c0.23,0.59,0.642,1.027,1.272,1.135c0.509,0.088,1.044,0.102,1.561,0.063c0.81-0.062,1.338-0.538,1.61-1.293
		c0.354-0.97,0.396-1.974,0.29-2.983c-0.183-1.726-0.692-3.374-1.263-5.004c-0.383-1.087-0.798-2.164-1.197-3.246L411.907,181.021z
		 M307.115,190.18c1.927-0.659,3.392-2.527,3.466-4.735c0.091-2.688-2.095-4.981-4.876-5.149
		C305.896,183.673,306.373,186.978,307.115,190.18 M408.56,180.162c-1.986,1.562-3.941,3.159-5.603,5.08
		c-0.833,0.96-1.496,2.019-1.799,3.269c-0.239,0.99,0.025,1.689,0.853,2.266c0.192,0.133,0.399,0.25,0.606,0.356
		c1.048,0.541,1.829,0.425,2.659-0.412c0.728-0.738,1.251-1.611,1.627-2.571c1.001-2.579,1.4-5.295,1.824-8.061
		C408.635,180.129,408.593,180.139,408.56,180.162 M416.816,187.621c0.344,1.001,0.822,1.93,1.504,2.743
		c0.783,0.935,1.511,1.255,2.384,1.014c0.424-1.667,0.775-3.363,1.051-5.084c-0.062-0.095-0.122-0.19-0.19-0.282
		c-1.249-1.709-2.842-3.081-4.447-4.437c-0.607-0.513-1.239-1-1.931-1.56C415.571,182.655,415.975,185.185,416.816,187.621
		 M417.697,177.838c1.376,1.764,2.803,3.486,4.432,5.027c0.024,0.022,0.048,0.043,0.073,0.067c0.146-1.454,0.242-2.922,0.279-4.403
		c-1.594-0.368-3.222-0.615-4.867-0.865C417.661,177.765,417.671,177.807,417.697,177.838 M398.759,179.29
		c-0.959,0.333-1.853,0.785-2.644,1.426c-1.419,1.144-1.557,2.199-0.489,3.681c0.009,0.011,0.017,0.022,0.024,0.034
		c0.539,0.768,1.269,1.019,2.173,0.816c0.93-0.211,1.763-0.635,2.527-1.19c1.723-1.251,3.102-2.855,4.467-4.471
		c0.514-0.606,1-1.235,1.559-1.929C403.73,178.049,401.198,178.447,398.759,179.29 M421.107,173.4
		c-0.864,0.309-1.715,0.647-2.659,1.008c0.151,0.077,0.205,0.114,0.262,0.136c1.262,0.438,2.518,0.892,3.779,1.323
		c-0.018-0.976-0.061-1.943-0.126-2.907C421.942,173.104,421.525,173.251,421.107,173.4 M395.143,171.936
		c-1.742,0.237-2.48,1.119-2.325,2.867c0.007,0.081,0.027,0.163,0.035,0.244c0.098,0.891,0.616,1.449,1.446,1.671
		c0.593,0.158,1.219,0.246,1.833,0.275c1.355,0.061,2.667-0.249,3.946-0.652c1.781-0.564,3.545-1.191,5.317-1.79
		c-0.008-0.05-0.017-0.102-0.024-0.152c-0.072-0.038-0.142-0.081-0.215-0.108c-1.626-0.576-3.236-1.192-4.879-1.711
		c-1.301-0.409-2.621-0.721-3.983-0.721C395.913,171.858,395.531,171.884,395.143,171.936 M408.499,174.374
		c-0.073,1.844,1.469,3.439,3.4,3.519c1.849,0.074,3.455-1.48,3.521-3.403c0.062-1.858-1.47-3.443-3.403-3.519
		c-0.043-0.001-0.085-0.002-0.127-0.002C410.097,170.969,408.575,172.48,408.499,174.374 M326.232,169.504
		c-1.631,0.376-3.048,1.18-4.337,2.216c-2.49,2.006-4.555,4.422-6.57,6.88c-0.52,0.635-1.023,1.284-1.618,2.031
		c3.895-0.583,7.628-1.164,11.218-2.419c1.389-0.485,2.674-1.151,3.82-2.067c2.039-1.631,2.26-3.16,0.779-5.302
		c-0.034-0.051-0.07-0.101-0.104-0.149c-0.616-0.872-1.401-1.291-2.343-1.291C326.808,169.402,326.526,169.436,326.232,169.504
		 M418.656,169.822c-0.355,0.432-0.698,0.874-1.104,1.384c1.566-0.234,3.09-0.471,4.582-0.798c-0.146-1.299-0.332-2.586-0.561-3.859
		C420.533,167.578,419.582,168.688,418.656,169.822 M395.387,164.836c-0.056,0.095-0.105,0.193-0.156,0.292
		c-0.502,0.986-0.433,1.814,0.399,2.549c0.664,0.586,1.406,1.141,2.206,1.501c2.67,1.201,5.557,1.564,8.49,2.027
		c-0.07-0.118-0.091-0.17-0.127-0.21c-1.446-1.646-2.859-3.326-4.355-4.926c-0.997-1.063-2.188-1.899-3.61-2.344
		c-0.37-0.116-0.701-0.175-0.998-0.175C396.455,163.551,395.895,163.958,395.387,164.836 M315.252,161.533
		c-1.1,1.137-1.88,2.48-2.428,3.954c-1.383,3.722-1.984,7.617-2.588,11.678c3.2-2.536,6.241-4.981,8.756-8.002
		c1.113-1.337,1.972-2.817,2.375-4.526c0.312-1.314-0.063-2.4-1.188-3.184c-0.298-0.21-0.612-0.396-0.937-0.563
		c-0.637-0.333-1.206-0.502-1.738-0.502C316.712,160.388,315.999,160.763,315.252,161.533 M305.627,175.604
		c1.45-3.674,2.875-7.355,3.505-11.282c0.28-1.735,0.258-3.475-0.37-5.154c-0.063-0.167-0.139-0.324-0.224-0.475
		C306.776,164.032,305.761,169.71,305.627,175.604 M418.606,158.182c-0.751,0.775-1.284,1.691-1.656,2.698
		c-0.942,2.537-1.354,5.192-1.765,7.963c2.102-1.666,4.099-3.277,5.776-5.233c-0.475-2.021-1.058-4.002-1.734-5.937
		C419.019,157.798,418.816,157.967,418.606,158.182 M402.195,157.962c-0.058,0.037-0.116,0.075-0.171,0.115
		c-0.839,0.588-1.104,1.268-0.868,2.261c0.258,1.095,0.801,2.053,1.504,2.917c1.704,2.092,3.784,3.778,5.892,5.434
		c0.038,0.032,0.093,0.043,0.288,0.132c-0.463-2.182-0.872-4.262-1.353-6.327c-0.346-1.474-0.919-2.863-1.921-4.035
		c-0.605-0.709-1.178-1.056-1.813-1.056C403.282,157.402,402.774,157.591,402.195,157.962 M411.336,155.327
		c-0.807,0.068-1.339,0.539-1.615,1.293c-0.354,0.969-0.396,1.973-0.29,2.982c0.19,1.812,0.745,3.534,1.342,5.241
		c0.355,1.011,0.748,2.006,1.121,3.01c0.041-0.004,0.081-0.007,0.121-0.012c0.998-2.525,1.982-5.058,2.416-7.759
		c0.191-1.184,0.178-2.37-0.252-3.515c-0.231-0.618-0.66-1.078-1.323-1.188c-0.311-0.053-0.63-0.076-0.951-0.076
		C411.715,155.304,411.524,155.312,411.336,155.327 M376.469,143.939c-0.257,0.649-0.522,1.297-0.766,1.951
		c-1.142,3.052-2.266,6.112-2.635,9.379c-0.16,1.424-0.082,2.842,0.448,4.198c0.313,0.809,0.878,1.41,1.744,1.558
		c0.697,0.117,1.43,0.14,2.142,0.086c1.108-0.085,1.836-0.74,2.212-1.773c0.483-1.329,0.543-2.708,0.396-4.095
		c-0.252-2.371-0.951-4.632-1.734-6.867c-0.521-1.494-1.093-2.971-1.641-4.453C376.579,143.929,376.524,143.935,376.469,143.939
		 M371.876,142.762c-2.728,2.145-5.412,4.338-7.694,6.973c-1.139,1.318-2.049,2.77-2.465,4.485c-0.332,1.36,0.033,2.318,1.17,3.108
		c0.264,0.184,0.546,0.343,0.83,0.491c1.438,0.741,2.512,0.582,3.649-0.567c1.001-1.011,1.719-2.209,2.232-3.528
		c1.374-3.541,1.925-7.266,2.504-11.062C371.975,142.718,371.919,142.729,371.876,142.762 M383.203,152.999
		c0.475,1.374,1.128,2.648,2.064,3.764c1.489,1.775,2.821,1.959,4.756,0.682c0.062-0.042,0.13-0.08,0.189-0.124
		c1.109-0.796,1.471-1.738,1.16-3.068c-0.296-1.274-0.887-2.416-1.65-3.463c-1.717-2.344-3.901-4.227-6.104-6.086
		c-0.834-0.706-1.701-1.376-2.651-2.142C381.497,146.183,382.051,149.655,383.203,152.999 M384.412,139.573
		c1.889,2.421,3.848,4.782,6.083,6.898c1.457,1.379,3.04,2.564,4.996,3.154c1.686,0.509,2.755,0.108,3.68-1.372
		c0.109-0.177,0.206-0.362,0.301-0.547c0.729-1.423,0.583-2.461-0.548-3.605c-1.015-1.025-2.231-1.749-3.57-2.267
		c-3.539-1.373-7.266-1.923-11.056-2.503C384.364,139.474,384.379,139.53,384.412,139.573 M358.424,141.566
		c-1.318,0.456-2.543,1.077-3.631,1.955c-1.945,1.57-2.135,3.021-0.668,5.054c0.01,0.015,0.021,0.03,0.033,0.045
		c0.737,1.054,1.742,1.4,2.979,1.121c1.278-0.289,2.422-0.872,3.47-1.635c2.366-1.717,4.258-3.917,6.131-6.134
		c0.704-0.833,1.372-1.696,2.14-2.649C365.242,139.86,361.77,140.408,358.424,141.566 M396.873,131.451
		c-2.7,0.229-5.247,1.129-7.781,2.033c-1.186,0.422-2.354,0.888-3.648,1.381c0.207,0.108,0.28,0.157,0.36,0.187
		c2.573,0.893,5.127,1.846,7.729,2.652c1.977,0.614,4.02,0.915,6.116,0.613c1.975-0.282,2.932-1.089,3.148-2.767
		c0.145-1.129-0.001-2.032-0.443-2.695c-0.342-0.299-0.688-0.592-1.035-0.883c-0.296-0.145-0.621-0.266-1.005-0.337
		c-0.788-0.148-1.611-0.227-2.423-0.227C397.549,131.409,397.209,131.422,396.873,131.451 M353.461,131.473
		c-2.391,0.326-3.406,1.537-3.191,3.935c0.01,0.111,0.037,0.225,0.047,0.336c0.135,1.223,0.848,1.989,1.986,2.294
		c0.814,0.218,1.672,0.336,2.516,0.374c1.857,0.085,3.659-0.338,5.412-0.893c2.448-0.775,4.868-1.635,7.302-2.456
		c-0.012-0.071-0.023-0.142-0.036-0.21c-0.099-0.05-0.193-0.111-0.294-0.149c-2.23-0.789-4.44-1.636-6.696-2.348
		c-1.784-0.562-3.596-0.989-5.468-0.989C354.518,131.366,353.992,131.398,353.461,131.473 M371.791,134.817
		c-0.102,2.533,2.015,4.722,4.667,4.83c2.534,0.104,4.741-2.03,4.83-4.67c0.087-2.552-2.015-4.726-4.67-4.831
		c-0.057-0.001-0.114-0.002-0.172-0.002C373.985,130.145,371.895,132.221,371.791,134.817 M385.728,128.572
		c-0.486,0.592-0.958,1.199-1.514,1.898c3.646-0.544,7.14-1.09,10.499-2.264c0.326-0.114,0.647-0.238,0.959-0.375
		c-1.993-1.286-4.066-2.455-6.217-3.497C388.136,125.672,386.922,127.113,385.728,128.572 M380.967,127.229
		c1.814-1.438,3.571-2.847,5.199-4.36c-1.373-0.564-2.771-1.076-4.195-1.535C381.565,123.255,381.265,125.219,380.967,127.229
		 M353.795,121.729c-0.074,0.131-0.145,0.266-0.213,0.4c-0.691,1.354-0.594,2.492,0.547,3.498c0.909,0.803,1.928,1.566,3.027,2.061
		c3.666,1.646,7.627,2.147,11.652,2.783c-0.098-0.162-0.125-0.233-0.174-0.288c-1.987-2.261-3.923-4.567-5.979-6.763
		c-1.367-1.458-3.002-2.606-4.953-3.215c-0.51-0.158-0.963-0.241-1.372-0.241C355.26,119.964,354.491,120.524,353.795,121.729
		 M334.207,141.367c0-5.833,5.67-10.783,9.109-11.82c1.229,13.327,5.736,37.031,22.221,43.434c0,0-6.707-8.506-7.205-12.892
		c0,0,11.327,13.236,16.525,14.808c0,0-2.577-3.082-4.517-10.638c0,0,12.419,6.76,14.142,25.149
		c1.719,18.388-10.35,24.874-10.35,24.874s10.675-3.267,15.65-15.442c0,0,0.416,9.801,6.291,13.779c0,0-2.259-10.317,1.795-15.213
		c0,0,4.71,3.876,7.038,11.313c-8.864,11.375-22.364,18.967-37.637,19.907c0.25-0.579,0.488-1.168,0.708-1.771
		c1.733-4.765,2.323-9.71,2.158-14.76c-0.007-0.214-0.049-0.425-0.083-0.708c-1.008,0.45-1.944,0.911-2.909,1.294
		c-4.52,1.789-9.213,2.521-14.061,2.218c-0.77-0.049-1.544-0.199-2.291-0.399c-4.018-1.076-5.846-3.899-5.14-7.991
		c0.179-1.033,0.498-2.052,0.847-3.043c0.331-0.945,0.301-1.792-0.182-2.682c-0.797-1.466-1.757-2.655-3.493-3.102
		c-1.132-0.291-1.552-1.706-0.89-2.785c0.379-0.616,0.924-1.128,1.41-1.709c-0.465-0.184-0.932-0.328-1.365-0.544
		c-1.658-0.829-2.259-2.445-1.544-4.16c0.179-0.427,0.407-0.841,0.666-1.227c0.641-0.951,0.658-1.938,0.128-2.907
		c-0.516-0.935-1.289-1.387-2.441-1.356c-2.727,0.071-3.898-1.634-2.971-4.226c0.765-2.138,2.257-3.753,3.83-5.325
		c1.428-1.424,2.812-2.899,4.129-4.427c1.323-1.542,0.469-4.076-1.439-4.758c-0.724-0.258-1.434-0.757-1.96-1.324
		c-0.739-0.792-0.632-1.613,0.076-2.498c0.35,0.483,0.633,1.048,1.072,1.429c0.446,0.382,1.05,0.582,1.625,0.884
		c-0.579-1.638-1.22-3.11-1.61-4.644c-0.608-2.376-0.551-4.802-0.189-7.227c0.064-0.424-0.002-0.931-0.181-1.317
		c-2.075-4.523-3.028-9.19-1.91-14.141c0.102-0.446,0.229-0.887,0.278-1.354c-1.43,1.68-2.461,3.552-2.811,5.753
		c-0.365,2.319,0.436,4.201,2.273,5.703c-0.237,0.041-0.474,0.061-0.705,0.061C336.093,145.583,334.207,143.789,334.207,141.367
		 M309.7,155.48c1.026,0.781,1.745,1.905,2.164,3.362c0.136,0.47,0.238,0.949,0.361,1.455c3.245-3.16,5.409-3.709,8.402-2.142
		c1.387,0.725,2.607,1.649,3.315,3.095c0.935,1.901,0.595,3.806-0.132,5.811c1.704-0.628,3.327-0.966,5.008-0.444
		c1.711,0.531,2.833,1.751,3.684,3.249c1.975,3.478,1.031,6.346-1.98,8.787c0.27,0.057,0.445,0.098,0.623,0.131
		c2.963,0.549,5.055,2.326,5.408,5.326c0.006,0.054,0.057,0.104,0.086,0.154v2.189c-0.029,0.051-0.079,0.1-0.086,0.155
		c-0.418,3.042-2.318,4.633-5.176,5.283c-0.257,0.06-0.515,0.108-0.834,0.175c3.395,2.79,3.452,5.6,2.412,7.878
		c-1.84,4.035-4.859,5.359-9.165,3.709c0.631,1.637,0.948,3.175,0.544,4.766c-0.42,1.643-1.497,2.791-2.896,3.673
		c-0.973,0.611-1.992,1.08-3.107,1.235c10.717,13.449,27.23,22.087,45.725,22.087c26.475,0,48.888-17.693,56.051-41.875
		c-0.015,0-0.028,0-0.042,0.002c-0.014,0-0.028,0-0.041,0c-1.502-0.062-2.543-0.939-3.42-1.978
		c-0.252,0.689-0.458,1.393-0.766,2.048c-0.31,0.662-0.84,1.153-1.49,1.511c-0.657,0.362-1.369,0.506-2.108,0.53
		c-1.217,0.042-2.366-0.16-3.328-0.992c-0.945-0.823-1.301-1.938-1.524-3.188c-0.752,0.917-1.559,1.644-2.653,1.943
		c-1.112,0.306-2.158,0.064-3.155-0.471c-0.916-0.493-1.719-1.114-2.19-2.072c-0.637-1.296-0.402-2.598,0.09-3.962
		c-2.45,0.934-4.439,0.537-5.826-1.743c-1.461-2.402-0.888-4.43,1.231-6.15c-3.052-0.854-4.094-1.97-4.15-4.414
		c-0.024-1.041,0.137-2.041,0.757-2.914c0.817-1.152,2.033-1.593,3.417-1.828c-1.849-1.506-2.665-3.282-1.592-5.534
		c1.272-2.674,3.343-3.468,6.138-2.388c-0.781-2.942-0.384-4.407,1.51-5.655c1.041-0.687,2.156-1.134,3.436-0.912
		c1.262,0.219,2.164,1.022,2.987,2.009c0.042-0.201,0.067-0.336,0.096-0.471c0.384-1.836,1.321-3.169,3.261-3.593
		c0.158-0.035,0.316-0.078,0.475-0.117h1.492c0.049,0.021,0.094,0.057,0.146,0.063c1.831,0.265,2.938,1.337,3.441,3.082
		c0.092,0.321,0.162,0.649,0.245,0.993c0.728-0.708,1.374-1.22,1.988-1.556c-2.917-7.476-7.334-14.208-12.873-19.827
		c-0.026,0.037-0.053,0.073-0.058,0.111c-0.393,2.848-2.17,4.337-4.846,4.946c-0.239,0.054-0.481,0.1-0.78,0.163
		c3.177,2.61,3.231,5.241,2.26,7.371c-1.724,3.779-4.549,5.019-8.578,3.474c0.59,1.533,0.888,2.972,0.506,4.46
		c-0.391,1.538-1.398,2.613-2.711,3.438c-1.176,0.738-2.42,1.264-3.842,1.205c-2.063-0.084-3.49-1.288-4.695-2.712
		c-0.346,0.946-0.627,1.911-1.048,2.811c-0.427,0.908-1.156,1.584-2.046,2.072c-0.903,0.495-1.882,0.693-2.896,0.729
		c-1.67,0.056-3.249-0.221-4.566-1.365c-1.297-1.128-1.787-2.659-2.094-4.376c-1.031,1.26-2.138,2.257-3.64,2.669
		c-1.527,0.418-2.964,0.088-4.329-0.646c-1.26-0.678-2.36-1.527-3.008-2.844c-0.875-1.779-0.555-3.563,0.123-5.439
		c-3.361,1.285-6.093,0.74-7.997-2.391c-2.003-3.297-1.218-6.077,1.69-8.44c-4.188-1.171-5.619-2.703-5.695-6.057
		c-0.033-1.428,0.188-2.802,1.037-4.002c1.123-1.582,2.79-2.186,4.693-2.506c-2.539-2.068-3.66-4.506-2.189-7.597
		c0.205-0.426,0.422-0.812,0.656-1.169C332.462,124.031,316.791,137.604,309.7,155.48 M374.91,121.74
		c0.486,1.385,1.025,2.754,1.54,4.129c0.057-0.004,0.109-0.009,0.163-0.015c0.72-1.816,1.429-3.637,2.031-5.492
		c-1.482-0.38-2.987-0.705-4.513-0.969C374.374,120.179,374.639,120.962,374.91,121.74 M363.024,118.534
		c0.232,0.352,0.481,0.694,0.752,1.025c2.339,2.87,5.195,5.183,8.086,7.458c0.053,0.043,0.127,0.061,0.395,0.18
		c-0.606-2.866-1.148-5.606-1.774-8.322c-2.11-0.231-4.254-0.354-6.427-0.354C363.71,118.522,363.367,118.528,363.024,118.534"/>
</g>
<g>
	<g>
		<path fill="#F9B5B6" d="M443.933,86.412c-8.407,0.285-11.555,9.415-11.555,9.415s3.168-7.8,13.425-7.763
			c9.147,0.032,11.628-6.523,11.628-6.523C455.135,85.103,452.34,86.126,443.933,86.412"/>
		<path fill="#F9B5B6" d="M443.351,90.339c-8.407,0.285-11.556,9.416-11.556,9.416s3.169-7.8,13.426-7.763
			c9.146,0.032,11.627-6.522,11.627-6.522C454.553,89.031,451.758,90.055,443.351,90.339"/>
		<path fill="#F9B5B6" d="M444.927,82.463c-8.405,0.284-11.555,9.416-11.555,9.416s3.169-7.8,13.426-7.765
			c9.146,0.032,11.627-6.521,11.627-6.521C456.129,81.153,453.334,82.178,444.927,82.463"/>
	</g>
	<path fill="#F9B5B6" d="M440.026,117.797c-0.554-0.37-1.002-1.108-1.17-1.928c-0.222-1.083,0.001-2.238,0.598-3.088
		c0.423-0.601,1.234-1.218,2.136-0.983c0.194,0.052,0.381,0.136,0.553,0.251c0.729,0.487,1.099,1.43,1.202,2.149
		c0.142,1.003-0.082,2.026-0.608,2.808c-0.489,0.722-1.191,1.125-1.878,1.076h-0.001c-0.001,0.001-0.001,0.001-0.002,0.001
		C440.561,118.062,440.281,117.966,440.026,117.797 M426.716,108.897c-0.048-0.025-0.092-0.054-0.137-0.083
		c-0.372-0.248-0.63-0.611-0.728-1.021c-0.086-0.364-0.052-0.771,0.096-1.177c0.323-0.89,1.133-1.668,2.162-2.082
		c0.836-0.335,2.052-0.479,2.953,0.123c0.032,0.021,0.064,0.044,0.095,0.068c0.616,0.46,0.833,1.276,0.556,2.082
		c-0.27,0.792-0.932,1.507-1.813,1.961l-0.101,0.051c-0.482,0.231-1.102,0.406-1.732,0.406
		C427.606,109.226,427.138,109.132,426.716,108.897 M456.105,91.974l-13.031,6.501l0.244-4.4c-1.97,0.205-3.577,0.771-4.873,1.485
		l-0.581,5.532l-3.806,1.9c-0.324-0.411-0.708-0.765-1.147-1.059c-1.593-1.063-3.83-1.262-5.838-0.521
		c-2.307,0.852-4.011,2.75-4.445,4.953c-0.211,1.075-0.084,2.186,0.355,3.132c0.38,0.816,0.993,1.523,1.772,2.043
		c0.444,0.298,0.939,0.53,1.465,0.692c1.398,0.431,2.983,0.355,4.456-0.213c0.004-0.001,0.008-0.003,0.011-0.005l0.326-0.135
		c0.791-0.348,1.532-0.849,2.147-1.449c0.002-0.003,0.006-0.005,0.008-0.008c0.21-0.216,0.275-0.288,0.3-0.318
		c1.86-2.049,3.383-3.151,4.465-3.744c-0.134,1.225-0.569,3.055-1.749,5.558c-0.017,0.034-0.058,0.122-0.178,0.399
		c-0.001,0.004-0.004,0.006-0.004,0.011c-0.319,0.797-0.497,1.675-0.516,2.546v0.344c0,0.005,0,0.009,0,0.012
		c0.056,2.187,1.101,4.22,2.726,5.305v0.001c0.545,0.364,1.145,0.612,1.78,0.742c1.099,0.219,2.263,0.053,3.277-0.474
		c0.938-0.483,1.75-1.252,2.346-2.221c0.344-0.557,0.61-1.173,0.789-1.82c0.223-0.922,0.269-1.538,0.266-1.952
		c0.002-2.255-1.036-4.383-2.705-5.497c-0.283-0.188-0.587-0.351-0.9-0.48c-0.175-0.073-0.356-0.135-0.536-0.187l0.305-4.398
		l11.74-6.604c0.043-0.022,0.086-0.045,0.129-0.067c0.269-0.14,0.547-0.285,0.803-0.502c0.948-0.801,1.229-2.011,1.297-2.885
		c0.033-0.424,0.029-0.77-0.011-1.087l-0.101-0.815c-0.017-0.132-0.095-0.247-0.212-0.309c-0.061-0.033-0.127-0.049-0.192-0.049
		C456.224,91.931,456.161,91.945,456.105,91.974"/>
</g>
<g>
	<circle fill="#F8B6B6" cx="532.075" cy="136.98" r="35.75"/>
	<text transform="matrix(1 0 0 1 509.2122 160.8145)" fill="#FFFFFF" font-family="'AvenirNext-Heavy'" font-size="65">1</text>
</g>
<g>
	<circle fill="#F8B6B6" cx="586.414" cy="192.533" r="35.75"/>
	<text transform="matrix(1 0 0 1 563.6086 217.4492)" fill="#FFFFFF" font-family="'AvenirNext-Heavy'" font-size="65">3</text>
</g>
</svg>
